<?xml version="1.0" standalone="no"?>
<!DOCTYPE svg PUBLIC "-//W3C//DTD SVG 20010904//EN"
 "http://www.w3.org/TR/2001/REC-SVG-20010904/DTD/svg10.dtd">
<svg version="1.0" xmlns="http://www.w3.org/2000/svg"
 width="1280.000000pt" height="1280.000000pt" viewBox="0 0 1280.000000 1280.000000"
 preserveAspectRatio="xMidYMid meet">
<metadata>
Created by potrace 1.11, written by Peter Selinger 2001-2013
</metadata>
<g transform="translate(0.000000,1280.000000) scale(0.100000,-0.100000)"
fill="#000000" stroke="none">
<path d="M3936 11570 c-180 -253 -329 -466 -332 -474 -5 -13 413 -862 421
-854 2 2 159 225 349 496 l344 492 -219 393 c-121 215 -224 396 -228 400 -5 4
-155 -199 -335 -453z"/>
<path d="M4512 10504 l-363 -495 158 -380 c86 -209 160 -378 164 -377 4 2 185
220 403 485 l396 483 -195 390 c-107 214 -196 390 -198 390 -1 0 -165 -223
-365 -496z"/>
<path d="M4528 10788 c-93 -134 -104 -155 -95 -175 6 -13 13 -23 16 -23 3 0
54 66 112 147 100 137 106 147 95 174 -6 16 -13 29 -16 29 -3 0 -53 -69 -112
-152z"/>
<path d="M10049 10533 c-13 -16 -12 -17 4 -4 9 7 17 15 17 17 0 8 -8 3 -21
-13z"/>
<path d="M9984 10458 l-19 -23 23 19 c21 18 27 26 19 26 -2 0 -12 -10 -23 -22z"/>
<path d="M9304 9678 c-357 -409 -837 -958 -1066 -1220 -230 -263 -417 -478
-415 -478 1 0 17 -4 35 -9 l33 -10 956 1137 c527 625 993 1179 1036 1230 43
50 77 92 74 92 -2 0 -296 -334 -653 -742z"/>
<path d="M4974 9478 l-401 -499 113 -205 c62 -113 115 -208 118 -211 3 -4 45
32 93 78 49 47 117 104 152 128 185 126 400 181 584 151 l59 -9 117 101 118
101 -269 426 c-148 234 -273 429 -276 432 -4 4 -187 -218 -408 -493z"/>
<path d="M4972 9704 c-89 -107 -101 -127 -92 -144 6 -11 13 -20 15 -20 3 0 48
54 101 120 84 105 95 123 87 144 -8 24 -14 18 -111 -100z"/>
<path d="M6468 9128 c11 -18 198 -354 417 -746 302 -540 403 -713 419 -717 11
-3 122 -23 246 -45 124 -22 275 -49 335 -60 61 -11 162 -30 225 -41 162 -29
315 -57 383 -71 32 -6 60 -8 63 -5 6 6 -387 727 -396 726 -3 0 -45 -50 -95
-111 -49 -60 -104 -125 -121 -143 l-30 -34 -85 21 c-91 23 -109 32 -109 57 0
9 74 101 165 204 91 104 165 193 165 199 0 9 -354 656 -365 666 -2 2 -147 19
-322 38 -175 19 -441 48 -592 64 -151 17 -285 30 -298 30 l-25 0 20 -32z"/>
<path d="M6133 9001 c-123 -75 -223 -139 -223 -143 0 -3 21 -14 46 -24 54 -21
80 -53 65 -82 -8 -16 -3 -26 35 -63 160 -155 285 -461 313 -761 5 -49 10 -90
12 -93 3 -2 117 -16 254 -31 138 -14 256 -31 263 -37 19 -15 15 -48 -22 -148
l-34 -94 -38 -3 c-38 -3 -396 25 -421 33 -7 2 -14 -9 -17 -28 -75 -463 -224
-787 -489 -1063 l-49 -51 26 -26 c14 -14 26 -34 25 -44 0 -10 -24 -70 -53
-133 -67 -148 -70 -149 -190 -46 -87 74 -88 74 -119 61 -18 -8 -31 -20 -29
-27 7 -32 176 -448 182 -448 10 0 550 510 550 519 0 4 -23 61 -51 125 -46 108
-49 120 -36 140 8 12 86 99 173 194 114 125 164 172 180 172 28 0 47 -27 108
-148 l47 -93 43 38 c23 21 133 123 243 227 l201 188 6 62 c3 33 11 154 17 267
l11 206 -397 739 c-219 407 -401 742 -404 745 -3 3 -106 -55 -228 -130z"/>
<path d="M5425 8825 c-88 -17 -136 -34 -233 -85 -71 -37 -167 -108 -132 -97 8
2 139 44 290 93 223 72 268 90 245 95 -46 10 -94 8 -170 -6z"/>
<path d="M5745 8765 c-67 -23 -1174 -386 -1282 -420 l-52 -17 -6 -61 c-4 -34
-5 -80 -3 -103 l3 -41 725 322 c399 177 725 326 725 331 0 17 -40 13 -110 -11z"/>
<path d="M5292 8413 c-600 -267 -624 -279 -642 -313 -39 -77 -54 -71 225 -102
138 -15 286 -32 330 -37 142 -18 457 -51 575 -61 63 -5 198 -19 299 -30 101
-11 186 -18 189 -15 9 8 -25 232 -49 320 -45 172 -132 342 -232 451 -32 35
-62 64 -65 64 -4 0 -288 -125 -630 -277z"/>
<path d="M4006 8253 c-3 -32 -15 -143 -26 -248 -11 -104 -27 -259 -35 -343 -9
-85 -15 -156 -12 -158 7 -7 319 -75 324 -70 3 2 9 71 14 153 5 81 14 220 19
308 6 88 13 217 17 287 l6 126 -150 1 -150 2 -7 -58z"/>
<path d="M4380 7890 c0 -33 2 -60 5 -60 3 0 101 -9 218 -20 197 -19 856 -79
1627 -150 179 -16 370 -34 425 -40 55 -5 105 -10 112 -10 11 0 33 50 33 75 0
8 -26 14 -72 19 -40 3 -113 10 -163 16 -49 5 -173 18 -275 29 -232 25 -875 95
-1120 122 -477 51 -745 79 -766 79 -23 0 -24 -4 -24 -60z"/>
<path d="M4524 7693 c-4 -15 -8 -45 -8 -65 -1 -36 8 -44 618 -592 l620 -556
34 32 c19 18 61 67 95 108 194 240 325 555 371 891 l7 46 -48 7 c-26 3 -104
10 -173 16 -69 6 -154 15 -190 20 -57 9 -196 22 -620 61 -58 5 -166 13 -240
19 -139 10 -315 25 -407 35 -51 6 -52 6 -59 -22z"/>
<path d="M4356 7489 c-4 -61 -5 -113 -2 -116 22 -22 1371 -1161 1373 -1159 1
1 14 27 27 58 l25 57 -667 598 c-367 329 -685 615 -708 635 l-41 38 -7 -111z"/>
<path d="M7260 7323 l0 -258 483 -73 c265 -41 508 -78 540 -83 31 -5 83 -13
115 -18 31 -6 81 -13 110 -16 52 -7 52 -7 53 22 0 15 8 118 18 228 10 110 15
203 12 207 -5 5 -399 81 -666 128 -27 5 -186 34 -352 64 -166 31 -304 56 -307
56 -3 0 -6 -116 -6 -257z"/>
<path d="M4505 7075 c12 -80 52 -227 86 -312 80 -203 217 -366 369 -440 47
-23 110 -47 141 -54 72 -15 246 -7 316 15 l53 17 -103 87 c-56 48 -264 224
-462 391 -198 167 -371 314 -383 325 l-24 21 7 -50z"/>
<path d="M7122 6927 c-29 -29 -52 -55 -52 -58 0 -12 455 -778 463 -779 4 -1
215 157 468 349 254 193 458 351 455 351 -4 0 -284 43 -623 95 -340 52 -626
95 -638 95 -12 0 -43 -23 -73 -53z"/>
<path d="M6389 6678 c-46 -51 -101 -112 -123 -135 l-38 -43 53 -124 53 -125
115 109 c64 59 126 119 138 132 l22 23 -68 128 -67 127 -85 -92z"/>
<path d="M6520 6294 c-272 -261 -523 -503 -558 -537 l-63 -63 278 -571 277
-572 57 52 c32 29 303 284 602 567 l544 515 -23 35 c-12 19 -156 262 -319 540
-163 278 -298 506 -299 507 0 1 -224 -212 -496 -473z"/>
<path d="M3948 4877 c-790 -955 -1082 -1314 -1073 -1320 8 -4 30 -9 48 -10 35
-2 38 2 1085 1313 578 722 1048 1318 1046 1322 -3 4 -8 8 -12 7 -4 0 -496
-591 -1094 -1312z"/>
<path d="M7170 4858 l-635 -561 318 -635 318 -634 32 24 c98 74 1363 1032
1370 1038 9 8 -750 1330 -762 1330 -3 0 -292 -253 -641 -562z"/>
<path d="M7125 5049 c-83 -77 -160 -151 -173 -163 -20 -20 -22 -26 -11 -49 7
-15 16 -27 21 -27 13 0 348 300 348 311 0 10 -28 69 -33 69 -1 0 -70 -63 -152
-141z"/>
<path d="M8005 3298 c-390 -302 -709 -555 -707 -561 8 -26 827 -1617 834
-1617 3 0 253 160 555 356 301 196 643 418 759 493 125 80 209 140 204 146 -4
6 -213 395 -465 865 -252 470 -461 858 -464 862 -3 3 -325 -241 -716 -544z"/>
<path d="M7854 3422 l-231 -175 18 -41 c10 -23 23 -40 28 -39 5 1 110 81 234
176 l224 174 -21 40 -21 41 -231 -176z"/>
</g>
</svg>
